<?xml version="1.0" encoding="UTF-8"?>
<svg width="209px" height="37px" viewBox="0 0 209 37" version="1.1" xmlns="http://www.w3.org/2000/svg" xmlns:xlink="http://www.w3.org/1999/xlink">
    <!-- Generator: Sketch 53 (72520) - https://sketchapp.com -->
    <title>smallcase_logo__standard_blue</title>
    <desc>Created with Sketch.</desc>
    <g id="Page-1" stroke="none" stroke-width="1" fill="none" fill-rule="evenodd">
        <g id="Revised-Copy-2" transform="translate(-591.000000, -836.000000)" fill="#1F7CE0" fill-rule="nonzero">
            <g id="smallcase_logo__standard_blue" transform="translate(591.000000, 836.000000)">
                <path d="M204.456522,21.6585366 C204.335625,18.7793496 201.936047,16.2439024 198.335151,16.2439024 C194.374624,16.2439024 192.094413,18.6633008 191.734783,21.6570676 L204.456522,21.6570676 L204.456522,21.6585366 Z M198.160349,11.7317073 C204.385943,11.7317073 209,16.3883075 209,22.7926177 C209,23.2603566 209,24.0725888 208.883839,24.4230217 C208.883839,25.0036119 208.30745,25.4713507 207.845751,25.4713507 L191.355424,25.4713507 C191.355424,28.7321588 194.355002,31.991482 198.505889,31.991482 C201.273146,31.991482 202.887625,30.9446378 204.385943,30.0136148 C204.849114,29.6631818 205.310813,29.5458759 205.771042,30.1294358 L207.15173,32.3433998 C207.614901,32.806684 207.731061,33.271453 207.038511,33.9723189 C205.307872,35.4869019 202.195075,37 198.160349,37 C190.893724,37 186.282609,31.2950708 186.282609,24.4230217 C186.282609,17.5539425 190.896665,11.7317073 198.160349,11.7317073 Z M165.909143,34.7329379 C165.57031,34.4982928 165.228593,34.0259945 165.456405,33.4348695 L166.474345,31.1952127 C166.699273,30.7244185 167.37838,30.4897734 167.942141,30.8432451 C169.301798,31.667511 170.994521,32.6106036 173.708069,32.6106036 C175.630045,32.6106036 176.76189,31.6645028 176.76189,30.2521201 C176.76189,28.6020842 174.952379,27.5401649 171.787535,26.0059474 C168.167069,24.3529031 165.456405,22.3508996 165.456405,18.3393718 C165.456405,15.2709367 167.489403,11.7317073 173.144308,11.7317073 C176.423058,11.7317073 178.797772,12.7936266 179.926734,13.5020741 C180.493379,13.9728683 180.72119,14.6813159 180.379473,15.2709367 L179.589343,16.9209727 C179.250511,17.6294202 178.571402,17.6294202 178.118664,17.3947752 C176.536963,16.6863277 174.952379,16.2170376 173.144308,16.2170376 C171.109869,16.2170376 170.205833,17.2759485 170.205833,18.3393718 C170.205833,19.8705812 171.898556,20.8136738 174.162249,21.8786013 C178.457497,23.7632822 181.73913,25.4148223 181.73913,29.8971443 C181.73913,33.6725228 178.571402,36.975603 173.369235,36.975603 C169.865559,37.2117522 167.264475,35.6790387 165.906259,34.7329379 L165.909143,34.7329379 Z M149.092444,32.4878049 C151.449276,32.4878049 153.804677,30.8489087 154.478261,29.7553813 L154.478261,26.0354356 C154.140754,25.8164512 152.343098,25.2682927 150.216516,25.2682927 C147.522177,25.2682927 145.391304,26.6937837 145.391304,28.9882384 C145.504283,30.9577035 146.739904,32.4878049 149.092444,32.4878049 Z M149.877466,21.2064122 C152.358657,21.2064122 154.842864,21.9075791 154.842864,21.9075791 C154.962021,18.0481772 154.016303,16.4131155 150.939325,16.4131155 C148.100663,16.4131155 145.381158,17.2306464 144.080984,17.5812299 C143.370564,17.6961018 142.896951,17.2306464 142.661652,16.5279876 L142.186531,14.5393588 C142.07039,13.7203361 142.424846,13.3697526 143.016108,13.1325493 C143.486705,13.0176773 146.919646,11.7317073 151.412939,11.7317073 C159.220015,11.7317073 159.930435,16.4101319 159.930435,22.3760182 L159.930435,35.2446695 C159.888202,35.8727361 159.381406,36.3739959 158.746402,36.4157675 L156.972614,36.4157675 C156.497494,36.4157675 156.262195,36.1830397 156.02388,35.5982367 L155.435634,33.9586995 C153.428058,35.9398691 150.699502,37.0363748 147.865364,36.9990788 C143.251406,36.9990788 139.93913,33.9586995 139.93913,28.9296915 C140.058288,24.6003585 143.60737,21.2093958 149.877466,21.2093958 L149.877466,21.2064122 Z M126.881185,11.7317073 C130.587546,11.7317073 133.363995,13.1326004 135.563309,15.9403543 C136.026789,16.5281625 135.907229,17.227863 135.333046,17.6963193 L133.480603,19.4537763 C132.785384,20.0371088 132.321904,19.5686525 131.973556,19.2180563 C130.934417,18.0484075 128.965367,16.7608987 126.997793,16.7608987 C122.947513,16.7608987 119.703156,20.1549688 119.703156,24.3651077 C119.703156,28.6945984 122.830904,32.0871767 126.767529,32.0871767 C129.892326,32.0871767 131.164681,30.3341954 132.438512,29.0451947 C132.89904,28.5767384 133.480603,28.5767384 134.056262,28.9273347 L135.679917,30.2163354 C136.257052,30.6847917 136.488792,31.2696161 136.140445,31.9708086 C134.172871,35.0112987 130.934417,37 126.767529,37 C120.052979,37 114.495652,31.6202123 114.495652,24.3651077 C114.61226,17.345723 120.283243,11.7317073 126.884137,11.7317073 L126.881185,11.7317073 Z M103.591304,1.14783914 C103.591304,0.57465254 104.075152,0 104.801696,0 L107.833086,0 C108.482339,0.0425125462 108.998648,0.532139994 109.043478,1.14783914 L109.043478,34.9497218 C108.998648,35.565421 108.482339,36.0550484 107.833086,36.097561 L104.804787,36.097561 C104.13544,36.097561 103.591304,35.5815464 103.591304,34.94679 L103.591304,1.14783914 Z M90.8695652,1.14783914 C90.8695652,0.57465254 91.3548214,0 92.0811597,0 L95.1116906,0 C95.7607587,0.0425125462 96.2769228,0.532139994 96.3217391,1.14783914 L96.3217391,34.9497218 C96.2769228,35.565421 95.7607587,36.0550484 95.1116906,36.097561 L92.0842507,36.097561 C91.4150921,36.097561 90.8695652,35.5815464 90.8695652,34.94679 L90.8695652,1.14783914 Z M72.7637581,32.4878049 C75.1188408,32.4878049 77.4739236,30.8489087 78.1478261,29.7553813 L78.1478261,26.0354356 C77.813021,25.8164512 76.0159464,25.2682927 73.8840676,25.2682927 C71.1913179,25.2682927 69.0608696,26.6937837 69.0608696,28.9882384 C69.0608696,30.9577035 70.2942123,32.4878049 72.7637581,32.4878049 Z M73.4881277,21.2064384 C75.9564863,21.2064384 78.424845,21.9076073 78.424845,21.9076073 C78.5433142,18.0481947 77.6030583,16.4131285 74.5438532,16.4131285 C71.7230865,16.4131285 69.0192888,17.2306616 67.726625,17.5812461 C67.0188095,17.6961184 66.5479315,17.2306616 66.3139926,16.5280009 L65.8416153,14.5393665 C65.7261448,13.7203416 66.0755542,13.3697571 66.6664007,13.1325532 C67.1357785,13.0176808 70.5473925,11.7317073 75.0147312,11.7317073 C82.776714,11.7317073 83.6,16.4101448 83.6,22.3760477 L83.6,35.2447347 C83.5565115,35.872803 83.0556414,36.3725723 82.4243052,36.4158359 L80.659264,36.4158359 C80.1898862,36.4158359 79.9559473,36.1831075 79.6035385,35.5983028 L79.012692,33.9587611 C77.0167106,35.9399362 74.3054156,37.0349531 71.4891476,36.9991488 C66.9003395,36.9991488 63.6086957,33.9587611 63.6086957,28.9297392 C63.7271648,24.6003942 67.2542477,21.2094221 73.4881277,21.2094221 L73.4881277,21.2064384 Z M22.8340042,14.3562442 C22.8340042,13.781723 23.2945519,13.2086675 23.9898012,13.2086675 L25.1470747,13.2086675 C25.7257111,13.2086675 26.0755499,13.4373034 26.1892104,13.8975066 L26.8844605,15.9654898 C27.3450081,15.3924342 29.8927804,12.6341463 34.5248255,12.6341463 C37.9966446,12.6341463 40.0794417,14.010359 41.8168275,16.4271586 C42.5120768,15.7368538 45.2901232,12.6341463 49.9177401,12.6341463 C57.2141703,12.6341463 59.0652174,17.690519 59.0652174,23.8973996 L59.0652174,35.849492 C59.0652174,36.4841034 58.5456246,37 57.906468,37 L55.0147611,37 C54.319511,37 53.8545351,36.5397968 53.8545351,35.849492 L53.8545351,23.667298 C53.8545351,19.8742857 52.3518518,17.5747354 49.1103053,17.5747354 C45.5203966,17.5747354 43.7844875,19.9886037 43.3209874,20.3330233 C43.4376003,20.7932265 43.5512608,22.2866884 43.5512608,23.5515143 L43.5512608,35.8524232 C43.5512608,36.4225476 43.0892374,37 42.5120768,37 L39.5008045,37 C38.8055552,37 38.3450076,36.5397968 38.3450076,35.849492 L38.3450076,23.667298 C38.3450076,19.7585021 36.9545089,17.5747354 33.5963495,17.5747354 C30.0093933,17.5747354 28.1568704,20.2201709 27.926597,21.0262593 L27.926597,35.849492 C27.8852658,36.466516 27.389291,36.9589628 26.7678476,37 L23.8761407,37 C23.2355075,37 22.7173913,36.4841034 22.7173913,35.849492 L22.7173913,14.3562442 L22.8340042,14.3562442 Z M0.525154798,34.7329379 C0.187734391,34.4982928 -0.154011868,34.0259945 0.0738189713,33.4348695 L1.09040682,31.1952127 C1.31823766,30.7244185 1.99740432,30.4897734 2.56265557,30.8432451 C3.91666382,31.667511 5.6153025,32.6106036 8.32764408,32.6106036 C10.2512294,32.6106036 11.3802902,31.6645028 11.3802902,30.2521201 C11.3802902,28.6020842 9.57206199,27.5401649 6.40550042,26.0059474 C2.78760302,24.3529031 0.0738189713,22.3508996 0.0738189713,18.3393718 C0.0738189713,15.2709367 2.10843558,11.7317073 7.76239284,11.7317073 C11.0414281,11.7317073 13.417791,12.7936266 14.5468518,13.5020741 C15.1121038,13.9728683 15.3399347,14.6813159 15.0010718,15.2709367 L14.2079897,16.9209727 C13.8705693,17.6294202 13.1928443,17.6294202 12.7386243,17.3947752 C11.1582269,16.6863277 9.57206199,16.2170376 7.76239284,16.2170376 C5.72921792,16.2170376 4.82221964,17.2759485 4.82221964,18.3393718 C4.82221964,19.8705812 6.51941584,20.8136738 8.78186407,21.8786013 C13.0789289,23.7632822 16.3565217,25.4148223 16.3565217,29.8971443 C16.3565217,33.6725228 13.1928443,36.975603 7.98733952,36.975603 C4.48479923,37.2117522 1.8834889,35.6790387 0.525154798,34.7329379 Z" id="Fill-1"></path>
            </g>
        </g>
    </g>
</svg>